HIERARCHY
ROOT hip
{
  OFFSET 0 0 0
  CHANNELS 6 Xposition Yposition Zposition Zrotation Yrotation Xrotation
  JOINT abdomen
  {
    OFFSET 0 20.6881 -0.73152
    CHANNELS 3 Zrotation Xrotation Yrotation
    JOINT chest
    {
      OFFSET 0 11.7043 -0.48768
      CHANNELS 3 Zrotation Xrotation Yrotation
      JOINT neck
      {
        OFFSET 0 22.1894 -2.19456
        CHANNELS 3 Zrotation Xrotation Yrotation
        JOINT head
        {
          OFFSET -0.24384 7.07133 1.2192
          CHANNELS 3 Zrotation Xrotation Yrotation
          JOINT leftEye
          {
            OFFSET 4.14528 8.04674 8.04672
            CHANNELS 3 Zrotation Xrotation Yrotation
            End Site
            {
              OFFSET 1 0 0
            }
          }
          JOINT rightEye
          {
            OFFSET -3.6576 8.04674 8.04672
            CHANNELS 3 Zrotation Xrotation Yrotation
            End Site
            {
              OFFSET 1 0 0
            }
          }
        }
      }
      JOINT rCollar
      {
        OFFSET -2.68224 19.2634 -4.8768
        CHANNELS 3 Zrotation Xrotation Yrotation
        JOINT rShldr
        {
          OFFSET -8.77824 -1.95073 1.46304
          CHANNELS 3 Zrotation Xrotation Yrotation
          JOINT rForeArm
          {
            OFFSET -28.1742 -1.7115 0.48768
            CHANNELS 3 Zrotation Xrotation Yrotation
            JOINT rHand
            {
              OFFSET -22.5879 0.773209 7.07136
              CHANNELS 3 Zrotation Xrotation Yrotation
              JOINT rThumb1
              {
                OFFSET -1.2192 -0.487915 3.41376
                CHANNELS 3 Zrotation Xrotation Yrotation
                JOINT rThumb2
                {
                  OFFSET -3.37035 -0.52449 3.41376
                  CHANNELS 3 Zrotation Xrotation Yrotation
                  End Site
                  {
                    OFFSET -1.78271 -1.18214 1.43049
                  }
                }
              }
              JOINT rIndex1
              {
                OFFSET -7.75947 0.938293 5.60832
                CHANNELS 3 Zrotation Xrotation Yrotation
                JOINT rIndex2
                {
                  OFFSET -2.54057 -0.884171 1.56538
                  CHANNELS 3 Zrotation Xrotation Yrotation
                  End Site
                  {
                    OFFSET -1.62519 -0.234802 1.16502
                  }
                }
              }
              JOINT rMid1
              {
                OFFSET -8.24714 1.18213 3.41376
                CHANNELS 3 Zrotation Xrotation Yrotation
                JOINT rMid2
                {
                  OFFSET -3.10165 -0.590103 1.0647
                  CHANNELS 3 Zrotation Xrotation Yrotation
                  End Site
                  {
                    OFFSET -2.48547 -0.328903 0.83742
                  }
                }
              }
              JOINT rRing1
              {
                OFFSET -8.82822 0.546677 1.51678
                CHANNELS 3 Zrotation Xrotation Yrotation
                JOINT rRing2
                {
                  OFFSET -2.60934 -0.819778 -0.0198488
                  CHANNELS 3 Zrotation Xrotation Yrotation
                  End Site
                  {
                    OFFSET -2.33842 -0.294052 0.168128
                  }
                }
              }
              JOINT rPinky1
              {
                OFFSET -8.27202 -0.0477905 -0.4584
                CHANNELS 3 Zrotation Xrotation Yrotation
                JOINT rPinky2
                {
                  OFFSET -1.82734 -0.647385 -0.700984
                  CHANNELS 3 Zrotation Xrotation Yrotation
                  End Site
                  {
                    OFFSET -1.69225 -0.51767 -0.607171
                  }
                }
              }
            }
          }
        }
      }
      JOINT lCollar
      {
        OFFSET 2.68224 19.2634 -4.8768
        CHANNELS 3 Zrotation Xrotation Yrotation
        JOINT lShldr
        {
          OFFSET 8.77824 -1.95073 1.46304
          CHANNELS 3 Zrotation Xrotation Yrotation
          JOINT lForeArm
          {
            OFFSET 28.1742 -1.7115 0.48768
            CHANNELS 3 Zrotation Xrotation Yrotation
            JOINT lHand
            {
              OFFSET 22.5879 0.773209 7.07136
              CHANNELS 3 Zrotation Xrotation Yrotation
              JOINT lThumb1
              {
                OFFSET 1.2192 -0.487915 3.41376
                CHANNELS 3 Zrotation Xrotation Yrotation
                JOINT lThumb2
                {
                  OFFSET 3.37035 -0.52449 3.41376
                  CHANNELS 3 Zrotation Xrotation Yrotation
                  End Site
                  {
                    OFFSET 1.78271 -1.18214 1.43049
                  }
                }
              }
              JOINT lIndex1
              {
                OFFSET 7.75947 0.938293 5.60832
                CHANNELS 3 Zrotation Xrotation Yrotation
                JOINT lIndex2
                {
                  OFFSET 2.54057 -0.884171 1.56538
                  CHANNELS 3 Zrotation Xrotation Yrotation
                  End Site
                  {
                    OFFSET 1.62519 -0.234802 1.16502
                  }
                }
              }
              JOINT lMid1
              {
                OFFSET 8.24714 1.18213 3.41376
                CHANNELS 3 Zrotation Xrotation Yrotation
                JOINT lMid2
                {
                  OFFSET 3.10165 -0.590103 1.0647
                  CHANNELS 3 Zrotation Xrotation Yrotation
                  End Site
                  {
                    OFFSET 2.48547 -0.328903 0.83742
                  }
                }
              }
              JOINT lRing1
              {
                OFFSET 8.82822 0.546677 1.51678
                CHANNELS 3 Zrotation Xrotation Yrotation
                JOINT lRing2
                {
                  OFFSET 2.60934 -0.819778 -0.0198488
                  CHANNELS 3 Zrotation Xrotation Yrotation
                  End Site
                  {
                    OFFSET 2.33842 -0.294052 0.168128
                  }
                }
              }
              JOINT lPinky1
              {
                OFFSET 8.27202 -0.0477905 -0.4584
                CHANNELS 3 Zrotation Xrotation Yrotation
                JOINT lPinky2
                {
                  OFFSET 1.82734 -0.647385 -0.700984
                  CHANNELS 3 Zrotation Xrotation Yrotation
                  End Site
                  {
                    OFFSET 1.69225 -0.51767 -0.607171
                  }
                }
              }
            }
          }
        }
      }
    }
  }
  JOINT rButtock
  {
    OFFSET -8.77824 4.35084 1.2192
    CHANNELS 3 Zrotation Xrotation Yrotation
    JOINT rThigh
    {
      OFFSET 0 -1.70687 -2.19456
      CHANNELS 3 Zrotation Xrotation Yrotation
      JOINT rShin
      {
        OFFSET 0 -36.8199 0.73152
        CHANNELS 3 Zrotation Xrotation Yrotation
        JOINT rFoot
        {
          OFFSET 0.73152 -45.1104 -5.12064
          CHANNELS 3 Zrotation Xrotation Yrotation
          End Site
          {
            OFFSET -1.1221 -3.69964 12.103
          }
        }
      }
    }
  }
  JOINT lButtock
  {
    OFFSET 8.77824 4.35084 1.2192
    CHANNELS 3 Zrotation Xrotation Yrotation
    JOINT lThigh
    {
      OFFSET 0 -1.70687 -2.19456
      CHANNELS 3 Zrotation Xrotation Yrotation
      JOINT lShin
      {
        OFFSET 0 -36.8199 0.73152
        CHANNELS 3 Zrotation Xrotation Yrotation
        JOINT lFoot
        {
          OFFSET -0.73152 -45.1104 -5.12064
          CHANNELS 3 Zrotation Xrotation Yrotation
          End Site
          {
            OFFSET 1.1221 -3.69964 12.103
          }
        }
      }
    }
  }
}
MOTION
Frames:	5
Frame Time:	0.00833333
-1.8267001 61.627502 -66.4014 13.613999 39.4281 12.389 -14.4821005 19.304201 -1.95693 5.7166305 -11.5192995 -0.606926 -9.52691 19.0703 -14.7203 11.309897 -32.4293 -26.484495 0.0 0.0 0.0 0.0 0.0 0.0 2.21088e-13 -6.8636795e-13 -2.60521e-14 48.5168 0.42215392 33.106804 -28.364698 -33.6293 73.0711 -1.3875101 31.4659 4.9319797 -5.84039e-10 6.3907196e-10 1.3784001e-09 -9.854391e-10 1.1444501e-09 2.38949e-09 -5.84021e-10 6.39069e-10 1.3783801e-09 7.730911 5.47488 0.41731405 -5.84037e-10 6.39069e-10 1.37839e-09 2.90554 0.965183 0.102902 -5.84024e-10 6.39069e-10 1.3784001e-09 10.2786 0.73180103 0.025912303 -5.8404404e-10 6.3907296e-10 1.3784099e-09 2.2216702 -0.733487 -0.20892 2.2099599e-13 -6.86402e-13 -2.6300502e-14 -68.3098 77.1672 -7.6818705 26.645998 -44.909103 -93.2641 45.00771 -79.9629 52.582127 3.3782799e-09 4.96061e-08 -1.34219e-09 5.8618e-09 8.52991e-08 -2.0759299e-09 3.3782699e-09 4.96061e-08 -1.34217e-09 -7.730911 5.47488 -0.41731405 3.3782799e-09 4.96061e-08 -1.34219e-09 -2.90554 0.965183 -0.102902 3.3782699e-09 4.96061e-08 -1.34219e-09 -10.2786 0.73180103 -0.025912303 3.3782799e-09 4.96061e-08 -1.3422e-09 -2.2216702 -0.733487 0.20892 -2.03217e-16 8e-44 -3.88251e-19 -62.230904 -59.986702 -48.10529 -20.52612 87.0885 20.928595 -1.9274701 -7.22757 -4.5967097 2.03217e-16 8e-44 3.88251e-19 25.6187 -25.6631 35.7597 2.823101 76.45711 -4.6327214 6.647379 -15.1266985 15.440198
-2.09354 61.6327 -66.872505 12.023 39.6916 11.633 -13.8039 18.8009 -2.7566001 6.37233 -11.876801 -0.700684 -9.43589 18.8646 -14.504001 11.6462 -31.949404 -25.952002 0.0 0.0 0.0 0.0 0.0 0.0 -9.91946e-14 -6.36966e-14 4.78947e-13 49.570496 1.2644091 33.7356 -28.286701 -32.7323 71.623505 -1.7392801 34.688004 5.57895 1.4321101e-09 1.9974801e-10 -1.31888e-09 2.43191e-09 2.3279e-10 -2.31172e-09 1.4321101e-09 1.9975001e-10 -1.31888e-09 7.730911 5.47488 0.41731405 1.4321101e-09 1.9974801e-10 -1.31888e-09 2.90554 0.965183 0.102902 1.43212e-09 1.9974801e-10 -1.31887e-09 10.2786 0.73180103 0.025912303 1.4321e-09 1.99749e-10 -1.31886e-09 2.2216702 -0.733487 -0.20892 -9.92711e-14 -6.3712e-14 4.7868903e-13 -66.51972 76.404305 -10.643408 26.833101 -44.4559 -92.345 49.925293 -80.546196 57.571674 -4.11521e-12 9.46753e-10 -2.82409e-10 1.55264e-11 1.72436e-09 -4.7689797e-10 -4.12348e-12 9.467309e-10 -2.82403e-10 -7.730911 5.47488 -0.41731405 -4.11793e-12 9.46721e-10 -2.8240502e-10 -2.90554 0.965183 -0.102902 -4.1307e-12 9.46721e-10 -2.82407e-10 -10.2786 0.73180103 -0.025912303 -4.1178697e-12 9.46746e-10 -2.82412e-10 -2.2216702 -0.733487 0.20892 -2.03217e-16 8e-44 -3.88251e-19 -62.304996 -59.2023 -49.5125 -15.78201 86.304504 16.185734 -1.9448901 -7.62973 -4.62915 2.03217e-16 8e-44 3.88251e-19 25.781502 -27.609701 34.662 3.170049 77.5532 -4.9561596 7.07701 -15.3613 16.216002
-2.36538 61.930103 -67.21461 9.472 40.971 9.606 -12.3529 18.7248 -3.70732 6.76569 -12.283098 -0.83854985 -9.3225 18.637901 -14.306601 11.764499 -31.4886 -25.516996 0.0 0.0 0.0 0.0 0.0 0.0 -2.30557e-13 1.5679e-13 7.97519e-13 50.5974 1.5518012 34.2799 -28.185198 -31.8553 70.21079 -1.8901402 35.849102 5.8301 2.84045e-09 3.09996e-10 -2.92532e-09 4.8257203e-09 3.15111e-10 -5.11714e-09 2.8404599e-09 3.09999e-10 -2.92532e-09 7.730911 5.47488 0.41731405 2.84045e-09 3.09996e-10 -2.92532e-09 2.90554 0.965183 0.102902 2.8404599e-09 3.09996e-10 -2.92532e-09 10.2786 0.73180103 0.025912303 2.84045e-09 3.09997e-10 -2.9253e-09 2.2216702 -0.733487 -0.20892 -2.30587e-13 1.5678e-13 7.9730504e-13 -62.56329 76.4944 -15.18539 26.909899 -44.247997 -91.94411 50.71209 -80.627 58.36918 -9.89616e-10 -1.7857401e-08 -5.22293e-10 -1.65183e-09 -2.997e-08 -9.37821e-10 -9.89625e-10 -1.7857401e-08 -5.2229e-10 -7.730911 5.47488 -0.41731405 -9.89621e-10 -1.7857401e-08 -5.22286e-10 -2.90554 0.965183 -0.102902 -9.896329e-10 -1.7857401e-08 -5.22291e-10 -10.2786 0.73180103 -0.025912303 -9.896189e-10 -1.7857401e-08 -5.22293e-10 -2.2216702 -0.733487 0.20892 -2.03217e-16 8e-44 -3.88251e-19 -60.990204 -57.880203 -50.014393 -12.179209 85.3242 12.582405 -1.9415697 -8.39537 -4.4998093 2.03217e-16 8e-44 3.88251e-19 26.3818 -29.319002 33.4962 3.5359793 78.4841 -5.273998 7.402371 -15.534399 16.771801
-2.5792801 62.2561 -67.5126 7.3419995 42.215702 7.8289995 -10.1069 19.0725 -4.8160996 6.89538 -12.738199 -1.02084 -9.1867695 18.3901 -14.128099 11.668501 -31.0491 -25.1775 0.0 0.0 0.0 0.0 0.0 0.0 -1.72998e-13 -2.49083e-14 9.296621e-13 51.614502 1.2956394 34.7339 -28.064602 -30.997301 68.8227 -1.7773799 34.954597 5.638439 3.641e-09 9.69815e-10 -3.44093e-09 6.19601e-09 1.39142e-09 -6.0267697e-09 3.64101e-09 9.69815e-10 -3.44093e-09 7.730911 5.47488 0.41731405 3.641e-09 9.69813e-10 -3.44094e-09 2.90554 0.965183 0.102902 3.64101e-09 9.69814e-10 -3.44093e-09 10.2786 0.73180103 0.025912303 3.641e-09 9.69814e-10 -3.44092e-09 2.2216702 -0.733487 -0.20892 -1.7295e-13 -2.49243e-14 9.29547e-13 -55.509 77.3248 -22.211004 26.891502 -44.2964 -92.0397 47.13721 -80.234695 54.74409 4.21776e-10 -6.8062502e-09 -2.06184e-09 8.59737e-10 -9.78399e-09 -3.4587002e-09 4.21766e-10 -6.8062795e-09 -2.06183e-09 -7.730911 5.47488 -0.41731405 4.21771e-10 -6.80627e-09 -2.06183e-09 -2.90554 0.965183 -0.102902 4.21761e-10 -6.8062795e-09 -2.06184e-09 -10.2786 0.73180103 -0.025912303 4.21776e-10 -6.80626e-09 -2.06184e-09 -2.2216702 -0.733487 0.20892 -2.03217e-16 8e-44 -3.88251e-19 -58.373505 -56.036003 -49.7249 -9.495919 84.15021 9.896625 -1.90848 -9.525021 -4.2084703 2.03217e-16 8e-44 3.88251e-19 27.427797 -30.778097 32.247795 3.9045405 79.25 -5.569738 7.619171 -15.648901 17.106401
-2.8584201 62.470802 -67.8878 5.4269996 42.8944 6.9649997 -8.386401 18.6224 -5.2961397 6.74095 -12.9084 -1.0802101 -9.08997 18.2349 -14.0731 11.768499 -30.616299 -25.0429 0.0 0.0 0.0 0.0 0.0 0.0 -1.20839e-13 -1.16728e-13 1.15404e-12 52.5629 0.9138822 34.770397 -27.9659 -30.423903 67.9421 -1.67087 34.0615 5.4519997 4.086e-09 3.51298e-10 -4.38437e-09 6.9432597e-09 2.6436e-10 -7.66319e-09 4.086e-09 3.51299e-10 -4.38438e-09 7.730911 5.47488 0.41731405 4.0859898e-09 3.51298e-10 -4.38438e-09 2.90554 0.965183 0.102902 4.08601e-09 3.51299e-10 -4.38437e-09 10.2786 0.73180103 0.025912303 4.086e-09 3.51299e-10 -4.38437e-09 2.2216702 -0.733487 -0.20892 -1.2082899e-13 -1.1674499e-13 1.15391e-12 -47.06122 78.070305 -30.277308 26.814402 -44.4992 -92.4368 44.73502 -79.9283 52.305286 8.84885e-10 -8.25637e-09 -3.35663e-09 1.73188e-09 -1.1596099e-08 -5.62294e-09 8.84877e-10 -8.25639e-09 -3.3566199e-09 -7.730911 5.47488 -0.41731405 8.84882e-10 -8.25638e-09 -3.35663e-09 -2.90554 0.965183 -0.102902 8.8487195e-10 -8.25639e-09 -3.35663e-09 -10.2786 0.73180103 -0.025912303 8.8488694e-10 -8.25638e-09 -3.35664e-09 -2.2216702 -0.733487 0.20892 -2.03217e-16 8e-44 -3.88251e-19 -56.659405 -55.1142 -50.0522 -7.9672694 83.16439 8.364906 -1.8204299 -10.599501 -3.79373 2.03217e-16 8e-44 3.88251e-19 28.742401 -32.1274 32.038803 4.2186513 79.82639 -5.825708 7.7537217 -15.743401 17.2629
